# Blender v2.82 (sub 7) OBJ File: ''
# www.blender.org
mtllib layer3Fog8.mtl
o layerRooms8
v -1.960938 -0.125000 2.390625
v -1.960938 -0.125000 -2.390625
v 1.960938 -0.125000 2.390625
v 1.960938 -0.125000 -2.390625
v 1.960938 0.125000 -2.390625
v -1.960938 0.125000 -2.390625
v -1.960938 0.125000 2.390625
v 1.960938 0.125000 2.390625
vn 0.0000 -1.0000 0.0000
vn 0.0000 0.0000 -1.0000
vn -1.0000 0.0000 0.0000
vn 0.0000 0.0000 1.0000
vn 1.0000 0.0000 0.0000
vn 0.0000 1.0000 0.0000
usemtl None
s off
f 1//1 2//1 3//1
f 3//1 2//1 4//1
f 5//2 4//2 6//2
f 6//2 4//2 2//2
f 2//3 1//3 6//3
f 6//3 1//3 7//3
f 1//4 3//4 7//4
f 7//4 3//4 8//4
f 8//5 3//5 5//5
f 5//5 3//5 4//5
f 6//6 7//6 5//6
f 5//6 7//6 8//6
