# Blender v2.82 (sub 7) OBJ File: ''
# www.blender.org
mtllib layer3Fog3.mtl
o layerRooms3
v 6.234375 -0.125000 -0.843750
v 6.234375 -0.125000 0.843750
v -6.234375 -0.125000 -0.843750
v -6.234375 -0.125000 0.843750
v -6.234375 0.125000 0.843750
v 6.234375 0.125000 0.843750
v -6.234375 0.125000 -0.843750
v 6.234375 0.125000 -0.843750
vn 0.0000 -1.0000 0.0000
vn 0.0000 1.0000 0.0000
vn 0.0000 0.0000 -1.0000
vn 0.0000 0.0000 1.0000
vn 1.0000 0.0000 0.0000
vn -1.0000 0.0000 0.0000
usemtl None
s off
f 1//1 2//1 3//1
f 3//1 2//1 4//1
f 5//2 6//2 7//2
f 7//2 6//2 8//2
f 8//3 1//3 7//3
f 7//3 1//3 3//3
f 4//4 2//4 5//4
f 5//4 2//4 6//4
f 6//5 2//5 8//5
f 8//5 2//5 1//5
f 4//6 5//6 3//6
f 3//6 5//6 7//6
