# Blender v2.82 (sub 7) OBJ File: ''
# www.blender.org
mtllib layer3Fog1.mtl
o layerRooms1
v 4.015625 -0.125000 2.890625
v -4.015625 -0.125000 2.890625
v 4.015625 -0.125000 -2.890625
v -4.015625 -0.125000 -2.890625
v -4.015625 0.125000 2.890625
v 4.015625 0.125000 2.890625
v 4.015625 0.125000 -2.890625
v -4.015625 0.125000 -2.890625
vn 0.0000 -1.0000 0.0000
vn 0.0000 0.0000 1.0000
vn 1.0000 0.0000 0.0000
vn -1.0000 0.0000 0.0000
vn 0.0000 0.0000 -1.0000
vn 0.0000 1.0000 0.0000
usemtl None
s off
f 1//1 2//1 3//1
f 3//1 2//1 4//1
f 2//2 1//2 5//2
f 5//2 1//2 6//2
f 6//3 1//3 7//3
f 7//3 1//3 3//3
f 4//4 2//4 8//4
f 8//4 2//4 5//4
f 3//5 4//5 7//5
f 7//5 4//5 8//5
f 8//6 5//6 7//6
f 7//6 5//6 6//6
