# Blender v2.82 (sub 7) OBJ File: ''
# www.blender.org
mtllib layer3Fog4.mtl
o layerRooms4
v -0.841034 -0.125000 0.781250
v -0.841034 -0.125000 -0.781250
v 0.841034 -0.125000 0.781250
v 0.841034 -0.125000 -0.781250
v -0.841034 0.125000 0.781250
v 0.841034 0.125000 0.781250
v 0.841034 0.125000 -0.781250
v -0.841034 0.125000 -0.781250
vn 0.0000 -1.0000 0.0000
vn 0.0000 0.0000 1.0000
vn 0.0000 0.0000 -1.0000
vn -1.0000 0.0000 0.0000
vn 1.0000 0.0000 0.0000
vn 0.0000 1.0000 0.0000
usemtl None
s off
f 1//1 2//1 3//1
f 3//1 2//1 4//1
f 1//2 3//2 5//2
f 5//2 3//2 6//2
f 7//3 4//3 8//3
f 8//3 4//3 2//3
f 2//4 1//4 8//4
f 8//4 1//4 5//4
f 6//5 3//5 7//5
f 7//5 3//5 4//5
f 5//6 6//6 8//6
f 8//6 6//6 7//6
