# Blender v2.82 (sub 7) OBJ File: ''
# www.blender.org
mtllib Layer3All.mtl
o layerRoomsAll
v -0.906250 1.007500 1.468750
v -0.906250 1.007500 6.562500
v -2.593750 1.007500 6.562500
v -2.593750 1.007500 -3.437500
v -0.906250 1.007500 -3.437500
v -0.906250 1.007500 -0.218750
v 11.562500 1.007500 -0.218750
v 11.562500 1.007500 1.468750
v 11.562500 1.257500 -0.218750
v -0.906250 1.257500 -0.218750
v -0.906250 1.257500 6.562500
v -0.906250 1.257500 1.468750
v 11.562500 1.257500 1.468750
v -2.593750 1.257500 -3.437500
v -2.593750 1.257500 6.562500
v -0.906250 1.257500 -3.437500
v -2.906250 1.007500 6.562500
v -10.937500 1.007500 6.562500
v -2.906250 1.007500 0.781250
v -10.937500 1.007500 0.781250
v -10.937500 1.257500 6.562500
v -2.906250 1.257500 6.562500
v -2.906250 1.257500 0.781250
v -10.937500 1.257500 0.781250
v -2.906250 1.257500 0.468750
v -2.906250 1.007500 0.468750
v -2.906250 1.257500 -5.312500
v -2.906250 1.007500 -5.312500
v -10.937500 1.007500 0.468750
v -10.937500 1.257500 0.468750
v -10.937500 1.007500 -5.312500
v -10.937500 1.257500 -5.312500
v -0.593750 1.007500 -5.312500
v 7.328125 1.007500 -5.312500
v -0.593750 1.007500 -0.531250
v 7.328125 1.007500 -0.531250
v -0.593750 1.257500 -0.531250
v 7.328125 1.257500 -0.531250
v 7.328125 1.257500 -5.312500
v -0.593750 1.257500 -5.312500
v 7.640625 1.007500 6.562500
v 7.640625 1.007500 1.781250
v 13.437500 1.007500 6.562500
v 13.437500 1.007500 1.781250
v 13.437500 1.257500 1.781250
v 7.640625 1.257500 1.781250
v 7.640625 1.257500 6.562500
v 13.437500 1.257500 6.562500
v 7.640625 1.007500 -0.531250
v 7.640625 1.007500 -5.312500
v 13.437500 1.007500 -0.531250
v 13.437500 1.007500 -5.312500
v 7.640625 1.257500 -0.531250
v 13.437500 1.257500 -0.531250
v 13.437500 1.257500 -5.312500
v 7.640625 1.257500 -5.312500
v 3.406250 1.007500 6.562500
v 3.406250 1.007500 1.781250
v 7.328125 1.007500 6.562500
v 7.328125 1.007500 1.781250
v 7.328125 1.257500 1.781250
v 3.406250 1.257500 1.781250
v 3.406250 1.257500 6.562500
v 7.328125 1.257500 6.562500
v 3.093750 1.007500 4.999312
v 3.093750 1.007500 6.562500
v 1.093750 1.007500 4.999312
v -0.593750 1.007500 6.562500
v 1.093750 1.007500 1.781250
v -0.593750 1.007500 1.781250
v 3.093750 1.257500 4.999312
v 1.093750 1.257500 4.999312
v 1.093750 1.257500 1.781250
v -0.593750 1.257500 1.781250
v -0.593750 1.257500 6.562500
v 3.093750 1.257500 6.562500
v 11.875000 1.007500 1.468750
v 11.875000 1.007500 -0.218750
v 13.437500 1.007500 1.468750
v 13.437500 1.007500 -0.218750
v 11.875000 1.257500 -0.218750
v 11.875000 1.257500 1.468750
v 13.437500 1.257500 -0.218750
v 13.437500 1.257500 1.468750
v -2.593750 1.007500 -3.750000
v -2.593750 1.007500 -5.312500
v -0.911682 1.007500 -3.750000
v -0.911682 1.007500 -5.312500
v -2.593750 1.257500 -3.750000
v -0.911682 1.257500 -3.750000
v -0.911682 1.257500 -5.312500
v -2.593750 1.257500 -5.312500
vn 0.0000 -1.0000 0.0000
vn 0.0000 0.0000 -1.0000
vn 1.0000 0.0000 0.0000
vn 0.0000 0.0000 1.0000
vn -1.0000 0.0000 0.0000
vn 0.0000 1.0000 0.0000
usemtl None
s off
f 1//1 2//1 3//1
f 4//1 5//1 6//1
f 7//1 8//1 6//1
f 6//1 8//1 1//1
f 6//1 1//1 4//1
f 4//1 1//1 3//1
f 9//2 7//2 10//2
f 10//2 7//2 6//2
f 11//3 2//3 12//3
f 12//3 2//3 1//3
f 1//4 8//4 12//4
f 12//4 8//4 13//4
f 13//3 8//3 9//3
f 9//3 8//3 7//3
f 14//5 4//5 15//5
f 15//5 4//5 3//5
f 16//2 5//2 14//2
f 14//2 5//2 4//2
f 10//3 6//3 16//3
f 16//3 6//3 5//3
f 3//4 2//4 15//4
f 15//4 2//4 11//4
f 10//6 16//6 14//6
f 15//6 11//6 12//6
f 13//6 9//6 12//6
f 12//6 9//6 10//6
f 12//6 10//6 15//6
f 15//6 10//6 14//6
f 17//1 18//1 19//1
f 19//1 18//1 20//1
f 18//4 17//4 21//4
f 21//4 17//4 22//4
f 22//3 17//3 23//3
f 23//3 17//3 19//3
f 20//5 18//5 24//5
f 24//5 18//5 21//5
f 19//2 20//2 23//2
f 23//2 20//2 24//2
f 24//6 21//6 23//6
f 23//6 21//6 22//6
f 25//3 26//3 27//3
f 27//3 26//3 28//3
f 29//4 26//4 30//4
f 30//4 26//4 25//4
f 31//5 29//5 32//5
f 32//5 29//5 30//5
f 27//2 28//2 32//2
f 32//2 28//2 31//2
f 29//1 31//1 26//1
f 26//1 31//1 28//1
f 32//6 30//6 27//6
f 27//6 30//6 25//6
f 33//1 34//1 35//1
f 35//1 34//1 36//1
f 35//4 36//4 37//4
f 37//4 36//4 38//4
f 36//3 34//3 38//3
f 38//3 34//3 39//3
f 39//2 34//2 40//2
f 40//2 34//2 33//2
f 40//5 33//5 37//5
f 37//5 33//5 35//5
f 40//6 37//6 39//6
f 39//6 37//6 38//6
f 41//1 42//1 43//1
f 43//1 42//1 44//1
f 45//2 44//2 46//2
f 46//2 44//2 42//2
f 42//5 41//5 46//5
f 46//5 41//5 47//5
f 41//4 43//4 47//4
f 47//4 43//4 48//4
f 48//3 43//3 45//3
f 45//3 43//3 44//3
f 46//6 47//6 45//6
f 45//6 47//6 48//6
f 49//1 50//1 51//1
f 51//1 50//1 52//1
f 53//4 49//4 54//4
f 54//4 49//4 51//4
f 55//2 52//2 56//2
f 56//2 52//2 50//2
f 50//5 49//5 56//5
f 56//5 49//5 53//5
f 54//3 51//3 55//3
f 55//3 51//3 52//3
f 56//6 53//6 55//6
f 55//6 53//6 54//6
f 57//1 58//1 59//1
f 59//1 58//1 60//1
f 61//2 60//2 62//2
f 62//2 60//2 58//2
f 58//5 57//5 62//5
f 62//5 57//5 63//5
f 57//4 59//4 63//4
f 63//4 59//4 64//4
f 64//3 59//3 61//3
f 61//3 59//3 60//3
f 62//6 63//6 61//6
f 61//6 63//6 64//6
f 65//1 66//1 67//1
f 67//1 66//1 68//1
f 67//1 68//1 69//1
f 69//1 68//1 70//1
f 71//2 65//2 72//2
f 72//2 65//2 67//2
f 72//3 67//3 73//3
f 73//3 67//3 69//3
f 74//5 70//5 75//5
f 75//5 70//5 68//5
f 73//2 69//2 74//2
f 74//2 69//2 70//2
f 68//4 66//4 75//4
f 75//4 66//4 76//4
f 76//3 66//3 71//3
f 71//3 66//3 65//3
f 73//6 74//6 72//6
f 72//6 74//6 75//6
f 72//6 75//6 71//6
f 71//6 75//6 76//6
f 77//1 78//1 79//1
f 79//1 78//1 80//1
f 81//5 78//5 82//5
f 82//5 78//5 77//5
f 83//2 80//2 81//2
f 81//2 80//2 78//2
f 77//4 79//4 82//4
f 82//4 79//4 84//4
f 84//3 79//3 83//3
f 83//3 79//3 80//3
f 83//6 81//6 84//6
f 84//6 81//6 82//6
f 85//1 86//1 87//1
f 87//1 86//1 88//1
f 85//4 87//4 89//4
f 89//4 87//4 90//4
f 91//2 88//2 92//2
f 92//2 88//2 86//2
f 86//5 85//5 92//5
f 92//5 85//5 89//5
f 90//3 87//3 91//3
f 91//3 87//3 88//3
f 89//6 90//6 92//6
f 92//6 90//6 91//6
